<svg width="608" height="153" xmlns="http://www.w3.org/2000/svg" viewBox="0 0 924 231">
    <g id="shield">
        <path fill="#1A202C" fill-rule="evenodd" d="M44 7c12-3 24-6 32-6 7 0 20 3 31 6a683 683 0 0131 9c6 2 11 7 11 13 7 47-8 82-26 105a125 125 0 01-27 25 78 78 0 01-11 7l-9 3-9-3a77 77 0 01-11-7 125 125 0 01-27-25C10 111-4 76 2 29a16 16 0 0111-13 684 684 0 0131-9z"/>
        <circle cx="75.5" cy="74" r="35.5" fill="#2CD657"/>
    </g>
    <g id="text">
        <path fill="#1A202C" d="M208 93h-12l-4 22h-18l13-72h30a39 39 0 016 0l5 2a14 14 0 015 3 14 14 0 013 7 19 19 0 011 3l-1 5-2 11a21 21 0 01-8 13 27 27 0 01-1 1 27 27 0 01-12 5 36 36 0 01-5 0zm3-34h-9l-4 18h9a14 14 0 004 0q5-1 6-7l1-4v-2l-2-4-5-1zM250 43h18l-12 72h-18l12-72zM320 43h18l-13 72h-18l-12-39-7 39h-18l13-72h18l13 37 6-37zM342 89l4-20a39 39 0 014-12q6-11 19-14a48 48 0 019-1q8 0 13 2a19 19 0 015 3 16 16 0 016 12 23 23 0 010 2 28 28 0 01-1 6 31 31 0 010 1 55 55 0 010 2l-2 3-1 2h-17a14 14 0 002-8 16 16 0 000-4q-1-4-6-5a11 11 0 00-1 0 13 13 0 00-6 1q-5 2-6 10l-4 20a29 29 0 000 5 8 8 0 000 3q1 4 7 4a18 18 0 001 0 12 12 0 004-1q3-1 5-5a15 15 0 001-2h-8l2-11h27l-2 8-1 3a30 30 0 01-4 12q-8 11-26 11a63 63 0 01-1 0 48 48 0 01-7 0q-9-1-13-6-3-4-4-11a32 32 0 010-2 40 40 0 011-4 53 53 0 010-4zM438 93h-12l-4 22h-18l13-72h31a39 39 0 015 0l6 2a14 14 0 015 3 14 14 0 013 7 19 19 0 010 3v5l-2 11a21 21 0 01-8 13 27 27 0 01-1 1 27 27 0 01-12 5 36 36 0 01-6 0zm3-34h-9l-3 18h9a14 14 0 003 0q5-1 6-7l1-4v-2l-1-4-5-1a17 17 0 00-1 0zM593 43h18l-13 72h-18l-12-39-7 39h-18l12-72h19l12 37 7-37zM615 89l3-20a39 39 0 015-12q6-11 19-14a48 48 0 019-1q8 0 13 2a19 19 0 015 3 16 16 0 016 12 23 23 0 010 2 28 28 0 01-1 6 31 31 0 010 1 55 55 0 01-1 2l-1 3-1 2h-18a14 14 0 003-8 16 16 0 000-4q-1-4-6-5a11 11 0 00-2 0 13 13 0 00-5 1q-5 2-7 10l-3 20a29 29 0 00-1 5 8 8 0 001 3q1 4 7 4a18 18 0 001 0 12 12 0 004-1q3-1 5-5a15 15 0 001-2h-8l2-11h26l-1 8-1 3a30 30 0 01-4 12q-8 11-26 11a63 63 0 01-2 0 48 48 0 01-6 0q-9-1-13-6-3-4-4-11a32 32 0 010-2 40 40 0 010-4 53 53 0 011-4z"/>
        <circle cx="506.6" cy="79" r="36" fill="#1A202C"/>
        <path fill="#F3F3F3" d="M486 58c11-11 29-10 40 1 12 12 12 29 1 40l-10-10c5-5 5-14-1-20-5-6-14-6-20-1l-10-10z"/>
        <path fill="#1A202C" d="M515 49l-6 22c-18-7 8 12 8 12l1-5 20-3-2 18-8 12-40-30-5-20 17-9s18 2 15 3z"/>
    </g>
</svg>

